<svg xmlns="http://www.w3.org/2000/svg" viewBox="0 0 128 128">
  <title>Mesh</title>
    <g transform="translate(64 64) scale(1.1) translate(-64 -64)">
      <path
        fill="#2563eb"
        transform="matrix(0.04396 0 0 -0.04396 5.04 84.08)"
        d="M163 74Q163 105 169.5 153.5Q176 202 191 287Q217 444 232 559Q241 631 241 679Q241 724 208 724Q182 724 145.5 697.5Q109 671 65 613Q51 594 34 594Q20 594 9.5 607.5Q-1 621 -1 638Q-1 654 5.5 670.5Q12 687 27 708Q75 775 134 811.5Q193 848 252 848Q307 848 336.5 813Q366 778 366 711Q366 684 361 647.5Q356 611 352 588Q348 565 346 556Q403 719 474 783.5Q545 848 630 848Q695 848 732.5 802Q770 756 770 672Q770 639 761 590Q811 728 878 788Q945 848 1032 848Q1102 848 1139.5 803Q1177 758 1177 677Q1177 633 1164 570L1103 284Q1093 234 1093 198Q1093 156 1112.5 135Q1132 114 1167 114Q1200 114 1231.5 136Q1263 158 1306 209Q1318 223 1333 223Q1346 223 1353.5 211Q1361 199 1361 178Q1361 139 1342 116Q1290 53 1239 24Q1188 -5 1132 -5Q1047 -5 999 45.5Q951 96 951 181Q951 240 975 352L1015 535Q1017 544 1022 567Q1027 590 1030 610.5Q1033 631 1033 651Q1033 686 1019.5 703.5Q1006 721 981 721Q934 721 882.5 660.5Q831 600 784.5 460Q738 320 709 96Q702 36 684.5 15.5Q667 -5 628 -5Q594 -5 578.5 11Q563 27 563 71Q563 112 574 178.5Q585 245 602 335Q648 577 648 647Q648 685 633.5 703Q619 721 590 721Q541 721 489 665.5Q437 610 387.5 468.5Q338 327 305 86Q298 35 284.5 15Q271 -5 232 -5Q195 -5 179 11.5Q163 28 163 74ZM1754 178Q1754 138 1735 116Q1698 71 1630.5 33Q1563 -5 1486 -5Q1381 -5 1323 52Q1265 109 1265 208Q1265 277 1294 336.5Q1323 396 1374.5 431Q1426 466 1491 466Q1549 466 1584 431.5Q1619 397 1619 338Q1619 269 1569.5 219.5Q1520 170 1402 141Q1427 95 1497 95Q1542 95 1599.5 126.5Q1657 158 1699 209Q1711 223 1726 223Q1739 223 1746.5 211Q1754 199 1754 178ZM1386 221V219Q1445 233 1479 261Q1513 289 1513 326Q1513 345 1502.5 356.5Q1492 368 1474 368Q1437 368 1411.5 325Q1386 282 1386 221ZM1752 51Q1752 77 1771 96Q1790 115 1827 115Q1840 115 1857.5 112.5Q1875 110 1884 109Q1883 135 1872.5 158Q1862 181 1846 202.5Q1830 224 1816 240Q1785 181 1754.5 142Q1724 103 1688 68Q1670 50 1650 50Q1634 50 1624 61.5Q1614 73 1614 90Q1614 110 1628 127L1641 143Q1696 211 1724 255Q1741 284 1764 332.5Q1787 381 1809 433Q1828 477 1888 477Q1916 477 1927 472Q1938 467 1938 456Q1938 450 1934 437Q1930 424 1923 411Q1905 375 1905 350Q1905 335 1915.5 317Q1926 299 1948 272Q1980 230 1996.5 200.5Q2013 171 2013 136Q2013 126 2011 108Q2060 127 2126 209Q2138 223 2153 223Q2166 223 2173.5 211Q2181 199 2181 178Q2181 140 2162 116Q2112 54 2066.5 31.5Q2021 9 1954 7Q1914 -27 1859 -27Q1807 -27 1779.5 -3Q1752 21 1752 51ZM2683 178Q2683 138 2664 116Q2618 63 2569.5 29Q2521 -5 2459 -5Q2408 -5 2382 24.5Q2356 54 2356 110Q2356 138 2370 210Q2383 273 2383 297Q2383 313 2372 313Q2359 313 2335 279.5Q2311 246 2287 191Q2263 136 2248 75Q2229 -5 2154 -5Q2124 -5 2114.5 16.5Q2105 38 2105 94Q2105 126 2106 145L2107 225Q2107 379 2138.5 546Q2170 713 2231.5 826.5Q2293 940 2379 940Q2425 940 2453.5 900.5Q2482 861 2482 798Q2482 697 2423 588.5Q2364 480 2231 335Q2228 283 2228 228Q2261 313 2301.5 366.5Q2342 420 2381.5 443Q2421 466 2454 466Q2519 466 2519 401Q2519 362 2497 260Q2478 173 2478 145Q2478 105 2507 105Q2527 105 2554.5 129.5Q2582 154 2628 209Q2640 223 2655 223Q2668 223 2675.5 211Q2683 199 2683 178ZM2242 460Q2304 533 2344.5 619Q2385 705 2385 775Q2385 807 2378 824Q2371 841 2358 841Q2340 841 2318 789.5Q2296 738 2275.5 650.5Q2255 563 2242 460Z"
      />
    </g>
</svg>