<svg xmlns="http://www.w3.org/2000/svg" viewBox="0 0 24 24" fill="none" stroke="#111111" stroke-width="1.9" stroke-linecap="round" stroke-linejoin="round">
  <circle cx="12" cy="12" r="3.2"/>
  <path d="M19.4 15a1 1 0 0 0 .2 1.1l.1.1a1.8 1.8 0 0 1 0 2.5 1.8 1.8 0 0 1-2.5 0l-.1-.1a1 1 0 0 0-1.1-.2 1 1 0 0 0-.6.9V19a1.8 1.8 0 0 1-1.8 1.8h-2.4A1.8 1.8 0 0 1 9.4 19v-.2a1 1 0 0 0-.6-.9 1 1 0 0 0-1.1.2l-.1.1a1.8 1.8 0 0 1-2.5 0 1.8 1.8 0 0 1 0-2.5l.1-.1a1 1 0 0 0 .2-1.1 1 1 0 0 0-.9-.6H4.2A1.8 1.8 0 0 1 2.4 12v0A1.8 1.8 0 0 1 4.2 10h.2a1 1 0 0 0 .9-.6 1 1 0 0 0-.2-1.1L5 8.2a1.8 1.8 0 0 1 0-2.5 1.8 1.8 0 0 1 2.5 0l.1.1a1 1 0 0 0 1.1.2 1 1 0 0 0 .6-.9V4.8A1.8 1.8 0 0 1 11.2 3h2.4a1.8 1.8 0 0 1 1.8 1.8V5a1 1 0 0 0 .6.9 1 1 0 0 0 1.1-.2l.1-.1a1.8 1.8 0 0 1 2.5 0 1.8 1.8 0 0 1 0 2.5l-.1.1a1 1 0 0 0-.2 1.1 1 1 0 0 0 .9.6h.2a1.8 1.8 0 0 1 1.8 2 1.8 1.8 0 0 1-1.8 2h-.2a1 1 0 0 0-.9.6z"/>
</svg>
